<svg width="1205" height="286" viewBox="0 0 1205 286" fill="none" xmlns="http://www.w3.org/2000/svg">
<path d="M933.288 138.896C931.325 138.896 929.672 138.64 928.328 138.128C927.005 137.616 925.939 137.115 925.128 136.624C924.339 136.112 923.784 135.856 923.464 135.856C923.187 135.856 922.931 136.016 922.696 136.336C922.483 136.635 922.269 136.987 922.056 137.392C921.843 137.797 921.619 138.149 921.384 138.448C921.149 138.768 920.893 138.928 920.616 138.928C920.36 138.928 920.136 138.843 919.944 138.672C919.773 138.501 919.645 138.235 919.56 137.872L917.128 126.8C917.064 126.501 917.085 126.256 917.192 126.064C917.299 125.851 917.48 125.701 917.736 125.616C918.013 125.509 918.259 125.52 918.472 125.648C918.707 125.755 918.899 125.968 919.048 126.288C920.307 128.933 921.683 131.045 923.176 132.624C924.669 134.181 926.227 135.301 927.848 135.984C929.491 136.667 931.165 137.008 932.872 137.008C935.261 137.008 937.149 136.347 938.536 135.024C939.944 133.701 940.648 131.909 940.648 129.648C940.669 128.261 940.371 126.981 939.752 125.808C939.133 124.613 938.003 123.483 936.36 122.416C934.739 121.328 932.424 120.251 929.416 119.184C926.195 118.053 923.613 116.805 921.672 115.44C919.752 114.053 918.355 112.496 917.48 110.768C916.627 109.04 916.2 107.077 916.2 104.88C916.2 102.384 916.787 100.208 917.96 98.352C919.155 96.4747 920.797 95.024 922.888 94C925 92.9547 927.411 92.432 930.12 92.432C932.125 92.432 933.757 92.6667 935.016 93.136C936.275 93.584 937.277 94.0427 938.024 94.512C938.771 94.9813 939.357 95.216 939.784 95.216C940.147 95.216 940.456 94.9813 940.712 94.512C940.989 94.0427 941.256 93.5733 941.512 93.104C941.789 92.6133 942.131 92.368 942.536 92.368C942.792 92.368 943.005 92.4533 943.176 92.624C943.368 92.7947 943.528 93.104 943.656 93.552L946.824 104.912C946.909 105.232 946.899 105.52 946.792 105.776C946.707 106.011 946.536 106.181 946.28 106.288C946.003 106.373 945.747 106.363 945.512 106.256C945.299 106.128 945.107 105.925 944.936 105.648C943.549 102.789 942.088 100.539 940.552 98.896C939.037 97.232 937.448 96.048 935.784 95.344C934.141 94.64 932.424 94.288 930.632 94.288C928.2 94.288 926.227 95.0133 924.712 96.464C923.197 97.9147 922.44 99.8667 922.44 102.32C922.44 103.749 922.749 105.083 923.368 106.32C923.987 107.557 925.085 108.731 926.664 109.84C928.243 110.949 930.483 112.048 933.384 113.136C936.733 114.373 939.368 115.685 941.288 117.072C943.229 118.437 944.616 119.941 945.448 121.584C946.28 123.205 946.685 125.029 946.664 127.056C946.664 129.232 946.141 131.216 945.096 133.008C944.051 134.8 942.525 136.229 940.52 137.296C938.536 138.363 936.125 138.896 933.288 138.896Z" fill="#E0A82E"/>
<path d="M952.851 110.8L950.675 110.32C950.312 110.213 950.056 110.096 949.907 109.968C949.758 109.819 949.683 109.659 949.683 109.488C949.683 109.253 949.768 109.083 949.939 108.976C950.11 108.848 950.323 108.784 950.579 108.784H952.947C953.374 108.784 953.715 108.72 953.971 108.592C954.227 108.443 954.451 108.197 954.643 107.856L957.971 102.736C958.206 102.395 958.43 102.149 958.643 102C958.878 101.829 959.123 101.744 959.379 101.744C959.635 101.744 959.838 101.829 959.987 102C960.136 102.171 960.211 102.405 960.211 102.704V130.64C960.211 132.176 960.52 133.339 961.139 134.128C961.758 134.896 962.622 135.28 963.731 135.28C964.371 135.28 964.894 135.184 965.299 134.992C965.726 134.779 966.078 134.512 966.355 134.192C966.632 133.872 966.888 133.563 967.123 133.264C967.358 132.944 967.614 132.677 967.891 132.464C968.062 132.421 968.211 132.464 968.339 132.592C968.467 132.699 968.52 132.901 968.499 133.2C968.371 134.203 967.987 135.109 967.347 135.92C966.728 136.731 965.907 137.371 964.883 137.84C963.859 138.309 962.664 138.544 961.299 138.544C959.016 138.544 957.214 137.968 955.891 136.816C954.59 135.664 953.939 133.915 953.939 131.568V112.176C953.939 111.792 953.854 111.493 953.683 111.28C953.534 111.067 953.256 110.907 952.851 110.8ZM957.619 110.576L957.683 108.784H967.379C967.699 108.784 967.934 108.837 968.083 108.944C968.254 109.051 968.339 109.221 968.339 109.456C968.339 109.776 968.168 110.043 967.827 110.256C967.507 110.469 967.006 110.576 966.323 110.576H957.619Z" fill="#E0A82E"/>
<path d="M993.236 135.248V132.496L993.14 132.336V113.392C993.14 113.051 993.076 112.805 992.948 112.656C992.82 112.485 992.617 112.389 992.34 112.368L990.036 112.304C989.78 112.261 989.598 112.187 989.492 112.08C989.385 111.973 989.332 111.835 989.332 111.664C989.332 111.451 989.396 111.291 989.523 111.184C989.651 111.056 989.875 110.928 990.195 110.8L996.404 108.848C996.873 108.656 997.246 108.528 997.523 108.464C997.822 108.4 998.1 108.368 998.356 108.368C998.718 108.368 998.995 108.475 999.188 108.688C999.38 108.901 999.476 109.179 999.476 109.52V134.608C999.476 135.077 999.561 135.429 999.732 135.664C999.924 135.899 1000.2 136.059 1000.56 136.144L1002.23 136.464C1002.5 136.528 1002.71 136.635 1002.84 136.784C1002.98 136.912 1003.06 137.072 1003.06 137.264C1003.06 137.477 1002.97 137.659 1002.8 137.808C1002.63 137.936 1002.38 138 1002.04 138H995.668C994.921 138 994.324 137.765 993.876 137.296C993.449 136.805 993.236 136.123 993.236 135.248ZM973.876 129.648V113.392C973.876 113.051 973.812 112.805 973.684 112.656C973.577 112.485 973.374 112.389 973.076 112.368L970.772 112.304C970.516 112.261 970.334 112.187 970.228 112.08C970.121 111.973 970.068 111.835 970.068 111.664C970.068 111.451 970.132 111.291 970.26 111.184C970.388 111.056 970.612 110.928 970.932 110.8L977.14 108.848C977.652 108.656 978.046 108.528 978.324 108.464C978.601 108.4 978.846 108.368 979.06 108.368C979.465 108.368 979.763 108.475 979.956 108.688C980.148 108.901 980.244 109.179 980.244 109.52V128.784C980.244 130.939 980.756 132.539 981.78 133.584C982.804 134.608 984.158 135.12 985.844 135.12C986.889 135.12 987.988 134.864 989.14 134.352C990.313 133.84 991.55 133.029 992.852 131.92L994.1 130.8L994.996 131.696L993.716 132.848C991.326 135.003 989.225 136.507 987.411 137.36C985.62 138.213 983.902 138.64 982.26 138.64C979.785 138.64 977.769 137.861 976.212 136.304C974.654 134.725 973.876 132.507 973.876 129.648Z" fill="#E0A82E"/>
<path d="M1028.24 133.232L1028.14 133.04V95.856C1028.14 95.5147 1028.08 95.2693 1027.95 95.12C1027.82 94.9493 1027.62 94.8533 1027.34 94.832L1025.04 94.768C1024.78 94.7467 1024.6 94.6827 1024.49 94.576C1024.39 94.448 1024.33 94.2987 1024.33 94.128C1024.33 93.936 1024.4 93.776 1024.53 93.648C1024.65 93.52 1024.88 93.4027 1025.2 93.296L1031.41 91.312C1031.87 91.1413 1032.26 91.024 1032.56 90.96C1032.86 90.8747 1033.12 90.832 1033.36 90.832C1033.72 90.832 1034 90.9387 1034.19 91.152C1034.38 91.3653 1034.48 91.6533 1034.48 92.016V134.608C1034.48 135.077 1034.56 135.429 1034.73 135.664C1034.93 135.899 1035.2 136.059 1035.57 136.144L1037.23 136.464C1037.53 136.528 1037.74 136.635 1037.87 136.784C1038 136.912 1038.06 137.072 1038.06 137.264C1038.06 137.477 1037.98 137.659 1037.81 137.808C1037.63 137.936 1037.38 138 1037.04 138H1030.57C1029.87 138 1029.3 137.797 1028.88 137.392C1028.45 136.965 1028.24 136.357 1028.24 135.568V133.232ZM1005.84 124.112C1005.84 120.827 1006.48 117.989 1007.76 115.6C1009.04 113.189 1010.75 111.344 1012.91 110.064C1015.06 108.763 1017.44 108.112 1020.05 108.112C1022.46 108.112 1024.56 108.677 1026.35 109.808C1028.14 110.939 1029.59 112.507 1030.7 114.512L1029.52 115.632C1028.58 113.904 1027.38 112.581 1025.93 111.664C1024.5 110.725 1022.93 110.256 1021.2 110.256C1019.55 110.256 1018.07 110.736 1016.75 111.696C1015.43 112.635 1014.37 114.075 1013.58 116.016C1012.81 117.957 1012.43 120.421 1012.43 123.408C1012.43 126.181 1012.79 128.496 1013.52 130.352C1014.24 132.208 1015.23 133.605 1016.49 134.544C1017.75 135.483 1019.18 135.952 1020.78 135.952C1022.3 135.952 1023.78 135.525 1025.23 134.672C1026.68 133.797 1028.02 132.464 1029.26 130.672L1030.03 131.824C1028.39 134.107 1026.61 135.824 1024.69 136.976C1022.77 138.128 1020.67 138.704 1018.41 138.704C1016 138.704 1013.85 138.096 1011.95 136.88C1010.05 135.643 1008.56 133.925 1007.47 131.728C1006.38 129.531 1005.84 126.992 1005.84 124.112Z" fill="#E0A82E"/>
<path d="M1050.54 109.488V134.608C1050.54 135.077 1050.63 135.429 1050.8 135.664C1050.99 135.899 1051.27 136.059 1051.63 136.144L1053.3 136.464C1053.59 136.528 1053.81 136.635 1053.94 136.784C1054.06 136.912 1054.13 137.072 1054.13 137.264C1054.13 137.477 1054.04 137.659 1053.87 137.808C1053.72 137.936 1053.47 138 1053.1 138H1041.55C1041.23 138 1040.99 137.936 1040.81 137.808C1040.67 137.659 1040.59 137.477 1040.59 137.264C1040.59 137.072 1040.65 136.912 1040.78 136.784C1040.91 136.656 1041.1 136.56 1041.36 136.496L1043.12 136.144C1043.48 136.059 1043.75 135.899 1043.92 135.664C1044.11 135.429 1044.21 135.088 1044.21 134.64V113.36C1044.21 113.019 1044.14 112.773 1044.02 112.624C1043.91 112.453 1043.71 112.357 1043.41 112.336L1041.14 112.272C1040.88 112.229 1040.69 112.155 1040.56 112.048C1040.45 111.941 1040.4 111.803 1040.4 111.632C1040.4 111.419 1040.46 111.259 1040.59 111.152C1040.72 111.024 1040.94 110.896 1041.26 110.768L1047.47 108.816C1047.96 108.624 1048.35 108.496 1048.62 108.432C1048.92 108.368 1049.18 108.336 1049.39 108.336C1049.78 108.336 1050.06 108.443 1050.26 108.656C1050.45 108.869 1050.54 109.147 1050.54 109.488ZM1046.86 102.672C1045.6 102.672 1044.58 102.299 1043.79 101.552C1043.02 100.805 1042.64 99.8667 1042.64 98.736C1042.64 97.584 1043.03 96.6453 1043.82 95.92C1044.61 95.1733 1045.63 94.8 1046.86 94.8C1048.14 94.8 1049.18 95.1733 1049.97 95.92C1050.76 96.6667 1051.15 97.6053 1051.15 98.736C1051.15 99.8667 1050.76 100.805 1049.97 101.552C1049.18 102.299 1048.14 102.672 1046.86 102.672Z" fill="#E0A82E"/>
<path d="M1071.95 108.144C1074.92 108.144 1077.54 108.795 1079.82 110.096C1082.1 111.397 1083.9 113.2 1085.2 115.504C1086.5 117.808 1087.15 120.464 1087.15 123.472C1087.15 126.416 1086.49 129.04 1085.17 131.344C1083.84 133.627 1082.02 135.429 1079.69 136.752C1077.39 138.053 1074.72 138.704 1071.69 138.704C1068.73 138.704 1066.1 138.064 1063.82 136.784C1061.54 135.483 1059.76 133.68 1058.48 131.376C1057.2 129.072 1056.56 126.427 1056.56 123.44C1056.56 120.453 1057.21 117.819 1058.51 115.536C1059.81 113.232 1061.61 111.429 1063.92 110.128C1066.24 108.805 1068.92 108.144 1071.95 108.144ZM1073.9 136.784C1075.61 136.571 1077.02 135.867 1078.13 134.672C1079.24 133.477 1079.98 131.845 1080.37 129.776C1080.77 127.685 1080.77 125.211 1080.37 122.352C1079.96 119.451 1079.26 117.051 1078.25 115.152C1077.27 113.253 1076.06 111.877 1074.61 111.024C1073.16 110.149 1071.54 109.819 1069.77 110.032C1068.05 110.245 1066.63 110.96 1065.52 112.176C1064.43 113.371 1063.69 115.013 1063.31 117.104C1062.93 119.173 1062.94 121.637 1063.34 124.496C1063.75 127.333 1064.45 129.712 1065.45 131.632C1066.46 133.531 1067.68 134.917 1069.13 135.792C1070.58 136.667 1072.17 136.997 1073.9 136.784Z" fill="#E0A82E"/>
<path d="M172.016 142.784L170.544 145.088L191.088 88.448C191.387 87.5947 191.664 87.04 191.92 86.784C192.219 86.528 192.624 86.4 193.136 86.4H214.64C214.811 86.4 214.939 86.4426 215.024 86.528C215.152 86.6133 215.216 86.72 215.216 86.848C215.216 86.976 215.152 87.0827 215.024 87.168C214.939 87.2107 214.768 87.2747 214.512 87.36L209.072 88.192C208.304 88.32 207.749 88.6613 207.408 89.216C207.067 89.7707 206.917 90.5173 206.96 91.456L212.656 171.328C212.741 172.395 212.912 173.12 213.168 173.504C213.467 173.845 214.064 174.101 214.96 174.272L220.08 175.04C220.336 175.083 220.507 175.147 220.592 175.232C220.72 175.275 220.784 175.381 220.784 175.552C220.784 175.68 220.72 175.787 220.592 175.872C220.507 175.957 220.379 176 220.208 176H187.056C186.843 176 186.672 175.957 186.544 175.872C186.459 175.787 186.416 175.68 186.416 175.552C186.416 175.381 186.459 175.275 186.544 175.232C186.672 175.147 186.885 175.083 187.184 175.04L192.304 174.272C193.2 174.101 193.819 173.824 194.16 173.44C194.544 173.013 194.715 172.309 194.672 171.328L189.232 95.168L190.32 94.336L164.784 167.168C164.528 167.893 164.293 168.363 164.08 168.576C163.909 168.747 163.717 168.832 163.504 168.832C163.419 168.832 163.291 168.789 163.12 168.704C162.992 168.576 162.864 168.405 162.736 168.192C162.608 167.936 162.459 167.595 162.288 167.168L134.256 95.552L135.152 93.824L129.968 166.656C129.84 168.448 130.395 169.984 131.632 171.264C132.869 172.544 134.533 173.483 136.624 174.08L141.872 175.04C142.128 175.125 142.299 175.211 142.384 175.296C142.469 175.339 142.512 175.424 142.512 175.552C142.512 175.68 142.469 175.787 142.384 175.872C142.299 175.957 142.171 176 142 176H117.872C117.659 176 117.509 175.957 117.424 175.872C117.339 175.787 117.296 175.68 117.296 175.552C117.296 175.381 117.36 175.275 117.488 175.232C117.616 175.147 117.765 175.083 117.936 175.04L121.776 174.08C123.653 173.525 125.232 172.608 126.512 171.328C127.792 170.048 128.517 168.448 128.688 166.528L133.68 96.576C133.893 93.9307 133.829 91.9253 133.488 90.56C133.189 89.1947 132.485 88.4267 131.376 88.256L126.704 87.552C126.277 87.4667 125.936 87.3813 125.68 87.296C125.467 87.2107 125.36 87.0827 125.36 86.912C125.36 86.5707 125.701 86.4 126.384 86.4H148.336C148.763 86.4 149.125 86.528 149.424 86.784C149.723 86.9973 150 87.4453 150.256 88.128L172.016 142.784Z" fill="#111827"/>
<path d="M273.389 142.912C273.389 143.253 273.261 143.552 273.005 143.808C272.792 144.064 272.429 144.192 271.917 144.192H232.237V142.976H257.069C257.794 142.976 258.157 142.571 258.157 141.76C258.157 134.208 257.133 128.619 255.085 124.992C253.08 121.365 250.626 119.552 247.725 119.552C245.336 119.552 243.266 120.384 241.517 122.048C239.768 123.669 238.402 126.165 237.421 129.536C236.44 132.907 235.949 137.195 235.949 142.4C235.949 151.189 237.784 157.781 241.453 162.176C245.165 166.528 250.008 168.704 255.981 168.704C260.376 168.704 264.088 167.488 267.117 165.056C270.146 162.624 271.853 159.339 272.237 155.2C272.28 154.987 272.344 154.859 272.429 154.816C272.514 154.731 272.578 154.688 272.621 154.688C272.749 154.688 272.856 154.731 272.941 154.816C273.026 154.901 273.048 155.072 273.005 155.328C272.792 159.509 271.576 163.264 269.357 166.592C267.181 169.877 264.28 172.48 260.653 174.4C257.026 176.32 252.973 177.28 248.493 177.28C243.202 177.28 238.552 176.107 234.541 173.76C230.53 171.413 227.394 168.128 225.133 163.904C222.872 159.637 221.741 154.667 221.741 148.992C221.741 142.933 222.893 137.621 225.197 133.056C227.501 128.448 230.722 124.864 234.861 122.304C239.042 119.744 243.949 118.464 249.581 118.464C254.445 118.464 258.648 119.531 262.189 121.664C265.73 123.755 268.482 126.656 270.445 130.368C272.408 134.037 273.389 138.219 273.389 142.912Z" fill="#111827"/>
<path d="M326.954 142.912C326.954 143.253 326.826 143.552 326.57 143.808C326.357 144.064 325.994 144.192 325.482 144.192H285.802V142.976H310.634C311.359 142.976 311.722 142.571 311.722 141.76C311.722 134.208 310.698 128.619 308.65 124.992C306.645 121.365 304.191 119.552 301.29 119.552C298.901 119.552 296.831 120.384 295.082 122.048C293.333 123.669 291.967 126.165 290.986 129.536C290.005 132.907 289.514 137.195 289.514 142.4C289.514 151.189 291.349 157.781 295.018 162.176C298.73 166.528 303.573 168.704 309.546 168.704C313.941 168.704 317.653 167.488 320.682 165.056C323.711 162.624 325.418 159.339 325.802 155.2C325.845 154.987 325.909 154.859 325.994 154.816C326.079 154.731 326.143 154.688 326.186 154.688C326.314 154.688 326.421 154.731 326.506 154.816C326.591 154.901 326.613 155.072 326.57 155.328C326.357 159.509 325.141 163.264 322.922 166.592C320.746 169.877 317.845 172.48 314.218 174.4C310.591 176.32 306.538 177.28 302.058 177.28C296.767 177.28 292.117 176.107 288.106 173.76C284.095 171.413 280.959 168.128 278.698 163.904C276.437 159.637 275.306 154.667 275.306 148.992C275.306 142.933 276.458 137.621 278.762 133.056C281.066 128.448 284.287 124.864 288.426 122.304C292.607 119.744 297.514 118.464 303.146 118.464C308.01 118.464 312.213 119.531 315.754 121.664C319.295 123.755 322.047 126.656 324.01 130.368C325.973 134.037 326.954 138.219 326.954 142.912Z" fill="#111827"/>
<path d="M333.479 121.92L327.911 120.768C327.698 120.725 327.527 120.661 327.399 120.576C327.314 120.491 327.271 120.363 327.271 120.192C327.271 120.107 327.314 120.021 327.399 119.936C327.527 119.851 327.634 119.808 327.719 119.808H333.351C333.65 119.808 333.884 119.765 334.055 119.68C334.268 119.595 334.46 119.424 334.631 119.168L346.919 107.072C347.132 106.859 347.367 106.688 347.623 106.56C347.879 106.389 348.114 106.304 348.327 106.304C348.583 106.304 348.775 106.389 348.903 106.56C349.074 106.731 349.159 106.987 349.159 107.328V161.216C349.159 164.672 349.799 167.253 351.079 168.96C352.402 170.624 354.172 171.456 356.391 171.456C357.244 171.456 358.034 171.328 358.759 171.072C359.484 170.816 360.167 170.432 360.807 169.92C361.447 169.365 362.002 168.661 362.471 167.808C362.983 166.955 363.41 165.909 363.751 164.672C363.836 164.416 363.964 164.309 364.135 164.352C364.348 164.352 364.412 164.501 364.327 164.8C363.644 167.573 362.684 169.877 361.447 171.712C360.252 173.547 358.695 174.912 356.775 175.808C354.898 176.704 352.594 177.152 349.863 177.152C344.914 177.152 341.095 175.979 338.407 173.632C335.719 171.285 334.375 167.68 334.375 162.816V123.136C334.375 122.752 334.311 122.475 334.183 122.304C334.055 122.091 333.82 121.963 333.479 121.92ZM344.423 121.152L344.871 119.808H363.879C364.092 119.808 364.242 119.851 364.327 119.936C364.455 119.979 364.519 120.085 364.519 120.256C364.519 120.512 364.37 120.725 364.071 120.896C363.815 121.067 363.431 121.152 362.919 121.152H344.423Z" fill="#111827"/>
<path d="M442.12 154.432C442.12 160.832 439.453 166.037 434.12 170.048C428.787 174.016 421 176 410.76 176H367.816C367.603 176 367.432 175.957 367.304 175.872C367.219 175.787 367.176 175.68 367.176 175.552C367.176 175.296 367.432 175.125 367.944 175.04L373.128 174.272C373.981 174.101 374.6 173.824 374.984 173.44C375.368 173.056 375.56 172.459 375.56 171.648V89.92C375.56 89.408 375.389 89.024 375.048 88.768C374.749 88.512 374.109 88.2987 373.128 88.128L367.944 87.36C367.432 87.2747 367.176 87.104 367.176 86.848C367.176 86.72 367.219 86.6133 367.304 86.528C367.432 86.4426 367.603 86.4 367.816 86.4H399.048C407.197 86.4 414.088 87.488 419.72 89.664C425.395 91.7973 429.683 94.7627 432.584 98.56C435.528 102.357 437 106.752 437 111.744C437 115.925 435.848 119.659 433.544 122.944C431.24 126.187 427.933 128.747 423.624 130.624C419.357 132.459 414.237 133.376 408.264 133.376L411.016 132.992C417.117 132.992 422.493 133.931 427.144 135.808C431.837 137.643 435.507 140.181 438.152 143.424C440.797 146.624 442.12 150.293 442.12 154.432ZM403.912 134.016H391.432V132.736H404.744C408.328 132.736 411.336 131.968 413.768 130.432C416.2 128.896 418.035 126.635 419.272 123.648C420.509 120.661 421.128 117.035 421.128 112.768C421.128 107.733 420.147 103.339 418.184 99.584C416.264 95.8293 413.619 92.9067 410.248 90.816C406.877 88.7253 403.037 87.68 398.728 87.68H393.16V172.096C393.16 173.035 393.459 173.717 394.056 174.144C394.696 174.528 395.592 174.72 396.744 174.72H406.344C410.099 174.72 413.341 173.867 416.072 172.16C418.803 170.411 420.893 168 422.344 164.928C423.795 161.856 424.52 158.272 424.52 154.176C424.52 147.989 422.749 143.083 419.208 139.456C415.667 135.829 410.568 134.016 403.912 134.016Z" fill="#111827"/>
<path d="M479.04 170.048V169.472L478.336 170.112V128.896C478.336 125.824 477.696 123.477 476.416 121.856C475.136 120.192 473.301 119.36 470.912 119.36C468.267 119.36 466.283 120.043 464.96 121.408C463.637 122.731 462.976 124.224 462.976 125.888V131.136C462.976 133.269 462.208 135.061 460.672 136.512C459.179 137.963 457.259 138.688 454.912 138.688C453.248 138.688 451.861 138.176 450.752 137.152C449.685 136.128 449.152 134.592 449.152 132.544C449.152 130.325 450.048 128.128 451.84 125.952C453.632 123.776 456.277 121.984 459.776 120.576C463.275 119.168 467.605 118.464 472.768 118.464C479.808 118.464 485.056 119.936 488.512 122.88C491.968 125.824 493.696 129.963 493.696 135.296V168.512C493.696 170.005 493.952 171.093 494.464 171.776C495.019 172.416 495.68 172.736 496.448 172.736C497.173 172.736 497.835 172.501 498.432 172.032C499.072 171.563 499.456 170.795 499.584 169.728C499.627 169.557 499.669 169.451 499.712 169.408C499.797 169.323 499.861 169.28 499.904 169.28C500.032 169.28 500.117 169.323 500.16 169.408C500.203 169.451 500.224 169.557 500.224 169.728C500.224 170.539 499.861 171.52 499.136 172.672C498.411 173.824 497.216 174.869 495.552 175.808C493.888 176.704 491.669 177.152 488.896 177.152C485.44 177.152 482.923 176.491 481.344 175.168C479.808 173.845 479.04 172.139 479.04 170.048ZM445.888 163.52C445.888 158.912 447.808 155.2 451.648 152.384C455.531 149.525 461.632 148.096 469.952 148.096C472.597 148.096 474.752 148.352 476.416 148.864C478.123 149.376 479.701 150.016 481.152 150.784L480.64 151.296C479.189 150.613 477.717 150.08 476.224 149.696C474.731 149.312 473.045 149.12 471.168 149.12C467.968 149.12 465.493 150.187 463.744 152.32C462.037 154.411 461.184 157.419 461.184 161.344C461.184 165.056 462.016 167.893 463.68 169.856C465.344 171.819 467.499 172.8 470.144 172.8C471.936 172.8 473.685 172.373 475.392 171.52C477.141 170.667 478.592 169.451 479.744 167.872L480.448 168.32C478.613 171.179 476.053 173.376 472.768 174.912C469.483 176.405 465.963 177.152 462.208 177.152C457.387 177.152 453.461 175.893 450.432 173.376C447.403 170.816 445.888 167.531 445.888 163.52Z" fill="#111827"/>
<path d="M550.983 133.568C550.983 135.829 550.343 137.643 549.063 139.008C547.783 140.373 546.012 141.056 543.751 141.056C541.447 141.056 539.634 140.352 538.311 138.944C536.988 137.536 536.327 135.509 536.327 132.864V128.192C536.327 125.547 535.602 123.456 534.151 121.92C532.743 120.384 530.823 119.616 528.391 119.616C525.831 119.616 523.612 120.512 521.735 122.304C519.858 124.096 518.407 126.656 517.383 129.984C516.359 133.269 515.847 137.173 515.847 141.696C515.847 147.328 516.636 152.085 518.215 155.968C519.836 159.808 522.055 162.731 524.871 164.736C527.687 166.699 530.866 167.68 534.407 167.68C538.29 167.68 541.618 166.805 544.391 165.056C547.164 163.307 549.042 160.576 550.023 156.864C550.066 156.693 550.13 156.587 550.215 156.544C550.3 156.459 550.407 156.437 550.535 156.48C550.62 156.48 550.684 156.544 550.727 156.672C550.812 156.757 550.834 156.885 550.791 157.056C549.938 161.323 548.402 164.971 546.183 168C544.007 170.987 541.276 173.269 537.991 174.848C534.706 176.427 530.951 177.216 526.727 177.216C521.863 177.216 517.511 176.149 513.671 174.016C509.874 171.883 506.866 168.725 504.647 164.544C502.428 160.363 501.319 155.2 501.319 149.056C501.319 143.253 502.514 138.048 504.903 133.44C507.292 128.832 510.599 125.184 514.823 122.496C519.09 119.808 524.018 118.464 529.607 118.464C534.215 118.464 538.098 119.125 541.255 120.448C544.455 121.771 546.866 123.584 548.487 125.888C550.151 128.149 550.983 130.709 550.983 133.568Z" fill="#111827"/>
<path d="M553.018 176C552.89 176 552.762 175.957 552.634 175.872C552.549 175.787 552.506 175.68 552.506 175.552C552.506 175.467 552.57 175.36 552.698 175.232C552.826 175.104 553.039 175.019 553.338 174.976L556.73 174.464C557.327 174.336 557.733 174.101 557.946 173.76C558.202 173.419 558.33 172.992 558.33 172.48V88.192C558.33 87.936 558.266 87.744 558.138 87.616C558.01 87.4453 557.775 87.36 557.434 87.36H553.274C553.061 87.36 552.911 87.3173 552.826 87.232C552.741 87.104 552.698 86.976 552.698 86.848C552.698 86.72 552.741 86.6133 552.826 86.528C552.954 86.4426 553.103 86.3787 553.274 86.336L571.578 81.28C571.962 81.152 572.218 81.088 572.346 81.088C572.517 81.0453 572.687 81.024 572.858 81.024C573.114 81.024 573.306 81.1093 573.434 81.28C573.562 81.408 573.626 81.5787 573.626 81.792V172.416C573.626 172.971 573.733 173.419 573.946 173.76C574.202 174.101 574.607 174.336 575.162 174.464L578.682 175.04C579.109 175.125 579.322 175.296 579.322 175.552C579.322 175.851 579.13 176 578.746 176H553.018ZM571.194 154.56L595.834 129.728C597.754 127.808 598.458 126.037 597.946 124.416C597.477 122.752 596.047 121.685 593.658 121.216L591.162 120.768C590.906 120.683 590.714 120.597 590.586 120.512C590.501 120.427 590.458 120.341 590.458 120.256C590.458 120.085 590.501 119.979 590.586 119.936C590.714 119.851 590.885 119.808 591.098 119.808H613.882C614.138 119.808 614.309 119.851 614.394 119.936C614.479 119.979 614.522 120.085 614.522 120.256C614.522 120.384 614.458 120.491 614.33 120.576C614.245 120.661 614.031 120.725 613.69 120.768C610.575 121.408 607.631 122.496 604.858 124.032C602.085 125.525 599.461 127.531 596.986 130.048L571.898 155.456L571.194 154.56ZM590.394 135.872L611.066 171.584C611.706 172.693 612.367 173.483 613.05 173.952C613.733 174.379 614.607 174.741 615.674 175.04C616.015 175.168 616.207 175.275 616.25 175.36C616.335 175.445 616.378 175.531 616.378 175.616C616.378 175.744 616.335 175.851 616.25 175.936C616.165 175.979 616.037 176 615.866 176H588.154C587.983 176 587.834 175.979 587.706 175.936C587.621 175.851 587.578 175.723 587.578 175.552C587.578 175.467 587.642 175.381 587.77 175.296C587.898 175.168 588.09 175.083 588.346 175.04L591.098 174.592C592.122 174.421 592.762 174.08 593.018 173.568C593.274 173.013 593.167 172.288 592.698 171.392L579.45 147.136L590.394 135.872Z" fill="#111827"/>
<path d="M656.54 88.192C656.54 87.936 656.476 87.744 656.348 87.616C656.22 87.4453 655.985 87.36 655.644 87.36H651.548C651.335 87.36 651.185 87.3173 651.1 87.232C651.015 87.104 650.972 86.976 650.972 86.848C650.972 86.72 651.015 86.6133 651.1 86.528C651.185 86.4426 651.313 86.3787 651.484 86.336L669.788 81.28C670.172 81.152 670.449 81.088 670.62 81.088C670.791 81.0453 670.961 81.024 671.132 81.024C671.388 81.024 671.559 81.1093 671.644 81.28C671.772 81.408 671.836 81.5787 671.836 81.792V172.416C671.836 172.971 671.964 173.419 672.22 173.76C672.476 174.101 672.86 174.336 673.372 174.464L676.892 175.04C677.148 175.083 677.319 175.147 677.404 175.232C677.532 175.317 677.596 175.424 677.596 175.552C677.596 175.68 677.532 175.787 677.404 175.872C677.319 175.957 677.191 176 677.02 176H658.268C657.713 176 657.287 175.851 656.988 175.552C656.689 175.211 656.54 174.72 656.54 174.08V88.192ZM615.9 149.504C615.9 143.147 617.095 137.643 619.484 132.992C621.873 128.341 625.073 124.779 629.084 122.304C633.137 119.787 637.639 118.528 642.588 118.528C646.812 118.528 650.268 119.339 652.956 120.96C655.687 122.581 657.884 124.843 659.548 127.744L658.332 128.384C657.137 125.952 655.516 124.053 653.468 122.688C651.42 121.28 648.988 120.576 646.172 120.576C643.399 120.576 640.903 121.472 638.684 123.264C636.465 125.056 634.695 127.979 633.372 132.032C632.092 136.043 631.452 141.397 631.452 148.096C631.452 154.027 632.007 158.912 633.116 162.752C634.268 166.549 635.825 169.365 637.788 171.2C639.751 172.992 642.033 173.888 644.636 173.888C646.769 173.888 648.945 173.291 651.164 172.096C653.425 170.901 655.559 168.939 657.564 166.208L658.268 167.04C655.239 170.752 652.252 173.397 649.308 174.976C646.407 176.512 643.143 177.28 639.516 177.28C634.908 177.28 630.833 176.171 627.292 173.952C623.751 171.691 620.956 168.491 618.908 164.352C616.903 160.171 615.9 155.221 615.9 149.504Z" fill="#111827"/>
<path d="M698.177 144.064C698.177 138.432 698.988 133.739 700.609 129.984C702.23 126.187 704.3 123.328 706.817 121.408C709.377 119.488 712.044 118.528 714.817 118.528C717.974 118.528 720.406 119.531 722.113 121.536C723.82 123.499 724.673 126.315 724.673 129.984C724.673 133.141 723.926 135.509 722.433 137.088C720.982 138.624 719.148 139.392 716.929 139.392C714.838 139.392 713.281 138.816 712.257 137.664C711.233 136.512 710.678 134.805 710.593 132.544L710.529 130.496C710.486 129.173 710.209 128.171 709.697 127.488C709.185 126.805 708.289 126.464 707.009 126.464C705.686 126.464 704.406 127.125 703.169 128.448C701.932 129.771 700.908 131.755 700.097 134.4C699.329 137.045 698.945 140.373 698.945 144.384L698.177 144.064ZM698.945 119.872V172.032C698.945 172.501 699.073 172.928 699.329 173.312C699.628 173.696 700.033 173.952 700.545 174.08L706.881 175.104C707.137 175.147 707.308 175.211 707.393 175.296C707.478 175.339 707.521 175.424 707.521 175.552C707.521 175.68 707.457 175.787 707.329 175.872C707.244 175.957 707.094 176 706.881 176H678.465C678.294 176 678.145 175.957 678.017 175.872C677.889 175.744 677.825 175.637 677.825 175.552C677.825 175.424 677.889 175.317 678.017 175.232C678.188 175.104 678.401 175.019 678.657 174.976L682.113 174.464C682.668 174.336 683.052 174.123 683.265 173.824C683.521 173.483 683.649 173.099 683.649 172.672V125.568C683.649 125.269 683.585 125.035 683.457 124.864C683.329 124.693 683.116 124.608 682.817 124.608H678.465C678.337 124.608 678.209 124.565 678.081 124.48C677.996 124.352 677.953 124.245 677.953 124.16C677.953 124.032 677.996 123.925 678.081 123.84C678.209 123.712 678.38 123.627 678.593 123.584L696.897 119.232C697.238 119.147 697.494 119.083 697.665 119.04C697.878 118.997 698.07 118.976 698.241 118.976C698.497 118.976 698.668 119.083 698.753 119.296C698.881 119.467 698.945 119.659 698.945 119.872Z" fill="#111827"/>
<path d="M755.217 118.528C760.849 118.528 765.841 119.787 770.193 122.304C774.545 124.779 777.958 128.256 780.433 132.736C782.95 137.173 784.209 142.293 784.209 148.096C784.209 153.856 782.929 158.933 780.369 163.328C777.809 167.68 774.289 171.093 769.809 173.568C765.329 176.043 760.209 177.28 754.449 177.28C748.817 177.28 743.825 176.064 739.473 173.632C735.164 171.157 731.772 167.744 729.297 163.392C726.822 158.997 725.585 153.899 725.585 148.096C725.585 142.379 726.844 137.301 729.361 132.864C731.921 128.384 735.42 124.885 739.857 122.368C744.294 119.808 749.414 118.528 755.217 118.528ZM758.353 176.128C760.998 175.915 763.153 174.656 764.817 172.352C766.524 170.048 767.654 166.741 768.209 162.432C768.806 158.08 768.742 152.789 768.017 146.56C767.292 140.288 766.14 135.125 764.561 131.072C763.025 126.976 761.148 123.989 758.929 122.112C756.753 120.192 754.278 119.381 751.505 119.68C748.774 119.936 746.556 121.237 744.849 123.584C743.185 125.931 742.097 129.259 741.585 133.568C741.116 137.877 741.222 143.104 741.905 149.248C742.673 155.392 743.825 160.512 745.361 164.608C746.94 168.704 748.838 171.712 751.057 173.632C753.276 175.552 755.708 176.384 758.353 176.128Z" fill="#111827"/>
<path d="M806.871 118.976V202.368C806.871 202.923 806.978 203.371 807.191 203.712C807.447 204.053 807.852 204.288 808.407 204.416L812.439 204.992C812.695 205.035 812.866 205.099 812.951 205.184C813.036 205.269 813.079 205.376 813.079 205.504C813.079 205.632 813.036 205.739 812.951 205.824C812.866 205.909 812.716 205.952 812.503 205.952H786.775C786.647 205.952 786.519 205.909 786.391 205.824C786.306 205.739 786.263 205.632 786.263 205.504C786.263 205.419 786.306 205.312 786.391 205.184C786.519 205.056 786.754 204.971 787.095 204.928L789.975 204.416C790.572 204.288 790.978 204.053 791.191 203.712C791.447 203.371 791.575 202.944 791.575 202.432V125.44C791.575 125.184 791.49 124.992 791.319 124.864C791.191 124.693 790.978 124.608 790.679 124.608H786.519C786.306 124.608 786.156 124.565 786.071 124.48C785.986 124.352 785.943 124.224 785.943 124.096C785.943 123.968 785.986 123.861 786.071 123.776C786.199 123.691 786.348 123.627 786.519 123.584L804.759 118.464C805.186 118.379 805.463 118.315 805.591 118.272C805.762 118.229 805.932 118.208 806.103 118.208C806.359 118.208 806.551 118.293 806.679 118.464C806.807 118.592 806.871 118.763 806.871 118.976ZM805.783 129.984L805.015 129.152C807.874 125.568 810.839 122.901 813.911 121.152C816.983 119.36 820.482 118.464 824.407 118.464C828.972 118.464 833.004 119.595 836.503 121.856C840.044 124.075 842.796 127.275 844.759 131.456C846.764 135.595 847.767 140.523 847.767 146.24C847.767 152.597 846.615 158.123 844.311 162.816C842.007 167.467 838.85 171.051 834.839 173.568C830.828 176.085 826.348 177.344 821.399 177.344C817.218 177.344 813.804 176.576 811.159 175.04C808.514 173.504 806.316 171.072 804.567 167.744L805.719 167.168C806.956 169.728 808.556 171.691 810.519 173.056C812.482 174.421 814.679 175.104 817.111 175.104C820.012 175.104 822.594 174.272 824.855 172.608C827.116 170.901 828.887 168.064 830.167 164.096C831.49 160.128 832.151 154.773 832.151 148.032C832.151 141.717 831.575 136.64 830.423 132.8C829.314 128.917 827.756 126.08 825.751 124.288C823.746 122.496 821.463 121.6 818.903 121.6C816.855 121.6 814.679 122.283 812.375 123.648C810.114 124.971 807.916 127.083 805.783 129.984Z" fill="#111827"/>
<path d="M874.395 175.936C877.382 175.936 879.728 175.168 881.435 173.632C883.142 172.053 883.995 170.027 883.995 167.552C883.995 165.803 883.59 164.245 882.779 162.88C882.011 161.472 880.646 160.171 878.683 158.976C876.763 157.781 874.118 156.651 870.747 155.584C865.712 153.92 861.744 152.107 858.843 150.144C855.984 148.139 853.936 145.92 852.699 143.488C851.504 141.013 850.907 138.219 850.907 135.104C850.907 129.728 852.72 125.589 856.347 122.688C860.016 119.787 864.88 118.336 870.939 118.336C873.542 118.336 875.675 118.592 877.339 119.104C879.003 119.616 880.283 120.128 881.179 120.64C882.075 121.109 882.672 121.344 882.971 121.344C883.355 121.344 884.08 121.109 885.147 120.64C886.256 120.128 887.323 119.616 888.347 119.104C889.371 118.592 890.054 118.336 890.395 118.336C890.566 118.336 890.715 118.379 890.843 118.464C891.014 118.549 891.12 118.741 891.163 119.04L894.555 137.472C894.683 137.813 894.704 138.091 894.619 138.304C894.576 138.517 894.491 138.667 894.363 138.752C894.235 138.795 894.107 138.795 893.979 138.752C893.851 138.667 893.723 138.539 893.595 138.368C891.163 133.675 888.795 129.963 886.491 127.232C884.187 124.459 881.819 122.496 879.387 121.344C876.998 120.149 874.374 119.552 871.515 119.552C868.315 119.552 865.819 120.363 864.027 121.984C862.278 123.563 861.403 125.696 861.403 128.384C861.403 130.176 861.808 131.797 862.619 133.248C863.472 134.699 864.966 136.043 867.099 137.28C869.232 138.475 872.262 139.627 876.187 140.736C880.667 142.059 884.272 143.659 887.003 145.536C889.734 147.413 891.696 149.589 892.891 152.064C894.128 154.496 894.747 157.205 894.747 160.192C894.747 163.691 893.894 166.72 892.187 169.28C890.523 171.797 888.24 173.76 885.339 175.168C882.48 176.533 879.238 177.216 875.611 177.216C873.264 177.216 871.238 176.875 869.531 176.192C867.824 175.552 866.438 174.912 865.371 174.272C864.347 173.589 863.707 173.248 863.451 173.248C863.195 173.248 862.619 173.568 861.723 174.208C860.827 174.805 859.888 175.403 858.907 176C857.968 176.597 857.307 176.896 856.923 176.896C856.752 176.896 856.56 176.789 856.347 176.576C856.134 176.405 855.984 176.107 855.899 175.68L853.083 159.872C853.04 159.403 853.04 159.083 853.083 158.912C853.126 158.699 853.232 158.528 853.403 158.4C853.488 158.315 853.574 158.315 853.659 158.4C853.787 158.485 853.915 158.613 854.043 158.784C857.456 165.013 860.87 169.429 864.283 172.032C867.696 174.635 871.067 175.936 874.395 175.936Z" fill="#111827"/>
</svg>
